<?xml version="1.0" standalone="no"?>
<!DOCTYPE svg PUBLIC "-//W3C//DTD SVG 20010904//EN"
 "http://www.w3.org/TR/2001/REC-SVG-20010904/DTD/svg10.dtd">
<svg version="1.0" xmlns="http://www.w3.org/2000/svg"
 width="50.000000pt" height="50.000000pt" viewBox="0 0 50.000000 50.000000"
 preserveAspectRatio="xMidYMid meet">
<metadata>
Created by potrace 1.10, written by Peter Selinger 2001-2011
</metadata>
<g transform="translate(0.000000,50.000000) scale(0.100000,-0.100000)"
fill="#000000" stroke="none">
<path d="M235 394 c-48 -26 -65 -45 -113 -119 -52 -81 -90 -125 -109 -125 -7
0 -13 -4 -13 -10 0 -20 39 -9 64 18 14 15 49 63 78 107 62 94 116 130 181 121
40 -4 77 -30 77 -51 0 -23 -30 -40 -49 -28 -10 6 -29 9 -43 6 -20 -4 -28 0
-33 16 -3 12 -11 21 -16 21 -16 0 -10 -29 11 -50 11 -11 23 -32 26 -46 15 -59
111 -124 183 -124 34 0 24 17 -13 23 -57 9 -106 37 -132 76 -34 51 -32 63 11
55 67 -12 99 50 50 96 -32 30 -116 38 -160 14z"/>
<path d="M240 255 c0 -24 25 -67 54 -94 38 -36 44 -17 7 24 -17 19 -34 47 -37
60 -7 27 -24 34 -24 10z"/>
<path d="M45 80 c-10 -11 -24 -20 -32 -20 -7 0 -13 -4 -13 -10 0 -16 32 -12
52 7 17 15 19 15 36 0 10 -10 29 -17 42 -17 13 0 32 7 42 17 17 15 19 15 36 0
10 -10 29 -17 42 -17 13 0 32 7 42 17 17 15 19 15 36 0 10 -10 29 -17 42 -17
13 0 32 7 42 17 17 15 19 15 36 0 20 -19 52 -23 52 -7 0 6 -5 10 -12 10 -6 0
-22 10 -35 22 l-23 21 -23 -21 c-29 -28 -45 -28 -74 0 l-23 21 -23 -21 c-29
-28 -45 -28 -74 0 l-23 21 -23 -21 c-29 -27 -49 -28 -72 -2 -10 11 -21 20 -25
20 -4 0 -15 -9 -25 -20z"/>
</g>
</svg>
